<?xml version="1.0" encoding="UTF-8"?>
<svg id="Layer_1" xmlns="http://www.w3.org/2000/svg" version="1.1" viewBox="0 0 32 32">
  <!-- Generator: Adobe Illustrator 29.5.0, SVG Export Plug-In . SVG Version: 2.1.0 Build 137)  -->
  <defs>
    <style>
      .st0, .st1, .st2 {
        fill: none;
      }

      .st3 {
        fill-rule: evenodd;
      }

      .st3, .st4 {
        fill: #fff;
      }

      .st1 {
        stroke: #000;
        stroke-miterlimit: 4;
        stroke-width: 1px;
      }

      .st2 {
        stroke: #fff;
        stroke-linecap: round;
        stroke-width: 2px;
      }
    </style>
  </defs>
  <rect class="st0" width="32" height="32"/>
  <path class="st4" d="M7,10h18c.55,0,1,.45,1,1v13c0,.55-.45,1-1,1H7c-.55,0-1-.45-1-1v-13c0-.55.45-1,1-1Z"/>
  <path d="M8,12h16v11H8v-11Z"/>
  <g>
    <path class="st3" d="M5.17,4.09c-.11-.54.23-1.07.77-1.19L23.55-.84c.54-.11,1.07.23,1.19.77l.62,2.93c.11.54-.23,1.07-.77,1.19L6.98,7.79c-.54.11-1.07-.23-1.19-.77l-.62-2.93Z"/>
    <path class="st1" d="M8.87,2.28l1.04,4.89"/>
    <path class="st1" d="M12.79,1.45l1.04,4.89"/>
    <path class="st1" d="M16.7.61l1.04,4.89"/>
    <path class="st1" d="M20.61-.22l1.04,4.89"/>
  </g>
  <path class="st2" d="M6,8s1,1,1,2"/>
</svg>